PathFileType	4	(X/Y/Z)	s04c0303.trc
DataRate	CameraRate	NumFrames	NumMarkers	Units	OrigDataRate	OrigDataStartFrame	OrigNumFrames
200	200	5	50	mm	200	750	2000
Frame#	Time	racr			lacr			c7			jug			rlel			rdr			llel			ldr			s2			lic			ric			lasi			rasi			rpsi			lpsi			rgt			lgt			rth1			rth2			rth3			rth4			rlfc			rmfc			rsh1			rsh2			rsh3			rsh4			rlmal			rmmal			rcal			rtoe			rmt5			lth1			lth2			lth4			lth3			llfc			lmfc			lsh1			lsh2			lsh3			lsh4			llmal			lmmal			lcal			ltoe			lmt5			SBIKE			LBIKE			RBIKE			
		X1	Y1	Z1	X2	Y2	Z2	X3	Y3	Z3	X4	Y4	Z4	X5	Y5	Z5	X6	Y6	Z6	X7	Y7	Z7	X8	Y8	Z8	X9	Y9	Z9	X10	Y10	Z10	X11	Y11	Z11	X12	Y12	Z12	X13	Y13	Z13	X14	Y14	Z14	X15	Y15	Z15	X16	Y16	Z16	X17	Y17	Z17	X18	Y18	Z18	X19	Y19	Z19	X20	Y20	Z20	X21	Y21	Z21	X22	Y22	Z22	X23	Y23	Z23	X24	Y24	Z24	X25	Y25	Z25	X26	Y26	Z26	X27	Y27	Z27	X28	Y28	Z28	X29	Y29	Z29	X30	Y30	Z30	X31	Y31	Z31	X32	Y32	Z32	X33	Y33	Z33	X34	Y34	Z34	X35	Y35	Z35	X36	Y36	Z36	X37	Y37	Z37	X38	Y38	Z38	X39	Y39	Z39	X40	Y40	Z40	X41	Y41	Z41	X42	Y42	Z42	X43	Y43	Z43	X44	Y44	Z44	X45	Y45	Z45	X46	Y46	Z46	X47	Y47	Z47	X48	Y48	Z48	X49	Y49	Z49	X50	Y50	Z50	
750	3.7500	808.932745	1334.265634	-155.461103	816.366677	1279.882764	-459.579010	828.473667	1381.337974	-311.620860	758.633752	1241.599114	-303.780450	595.443971	1143.434260	11.468043	703.057048	910.240320	-105.734881	574.477105	1137.626772	-576.563948	691.826780	919.099929	-486.845082	229.285534	1273.124572	-265.640633	354.434129	1249.896679	-437.066203	400.329007	1246.941178	-122.205311	393.028181	1198.020027	-401.254166	426.385711	1186.075619	-167.633974	276.456424	1307.048015	-229.040512	261.659163	1315.106141	-300.032289	342.921820	1195.783633	-98.651612	308.670867	1166.057345	-456.871611	404.348196	1039.014094	-93.222402	447.352674	961.564075	-100.095816	449.733097	876.159310	-97.289216	477.084310	970.690533	-120.954190	453.629326	726.439948	-110.611343	429.512556	715.294871	-223.937773	349.181930	648.482171	-86.548038	296.601223	575.465730	-105.360075	217.231884	544.199353	-113.691088	319.797783	554.460823	-127.392219	102.964538	435.545589	-123.365805	131.948280	426.193546	-207.148251	46.020629	469.963125	-170.087722	182.922978	195.396832	-158.361818	128.333371	244.505423	-107.664197	357.172109	1086.435339	-466.761343	428.709219	1036.767642	-470.204819	456.160939	1060.164921	-463.967647	466.014263	956.512602	-471.830896	549.042806	817.490742	-453.251281	577.198487	791.366524	-345.332636	498.631760	709.531144	-475.931265	468.533576	630.476959	-454.995770	401.431717	572.003152	-451.892366	492.717401	617.887361	-426.214064	310.831630	461.166334	-448.802768	310.906200	468.651853	-361.149309	225.881509	456.387133	-408.453332	515.555451	373.228360	-417.327898	437.589942	354.632908	-478.419328	-183.672346	929.396694	-287.682538	-17.510381	79.112284	-485.377473	-17.443745	79.479274	-84.683645	
751	3.7550	807.653633	1336.704598	-153.972882	817.343077	1281.121300	-457.963750	828.010886	1382.327995	-309.562101	758.291855	1242.558724	-301.064463	595.882027	1143.617082	12.421170	703.562736	910.831886	-105.788015	575.349640	1138.560209	-576.043353	692.645112	919.828824	-486.266856	229.062806	1270.513812	-266.617919	355.015705	1246.792215	-438.371953	400.282694	1247.218788	-123.150732	394.057741	1194.906025	-401.749379	427.077805	1186.661964	-168.379541	274.931776	1306.239711	-229.830916	261.674181	1312.303379	-303.371534	345.154499	1195.550798	-99.710372	308.164681	1160.688153	-456.397360	408.590430	1039.707472	-94.646159	452.203870	963.008300	-100.176175	455.209581	877.660052	-98.370913	481.834646	972.490853	-120.839386	460.994040	728.478120	-110.911650	436.259787	717.304494	-224.173793	355.300117	652.624222	-86.393025	302.202532	581.447988	-103.883895	220.719278	551.570675	-113.002299	323.573156	559.366676	-127.223140	103.739269	445.712821	-122.601733	132.550612	435.603199	-206.576619	47.118925	481.210038	-169.186120	179.872314	204.465034	-158.474905	125.997915	254.441598	-107.509577	356.309709	1080.867786	-466.855119	426.810808	1030.728113	-471.709460	455.124841	1053.738709	-464.739089	464.078310	949.959070	-471.700452	545.345417	811.392318	-453.488392	573.270893	784.453521	-344.843992	495.925822	701.996303	-475.448003	466.908727	622.153719	-454.977532	400.807550	562.919229	-452.014075	491.593224	609.806378	-426.560548	312.358841	449.758344	-448.663033	312.178781	457.277911	-361.080095	227.740302	444.420199	-408.745315	517.713343	363.087089	-416.983269	439.893814	344.165794	-478.183432	-183.650768	929.407008	-287.403011	-17.507930	79.173008	-485.318216	-17.427546	79.487240	-84.645234	
752	3.7600	806.448872	1338.668004	-152.834427	818.533302	1282.984241	-457.231217	827.504311	1382.799877	-307.896564	757.972576	1242.977493	-298.633165	596.358503	1143.729162	13.396755	703.557211	910.732491	-105.203924	576.208666	1139.497448	-575.692853	693.042221	920.350873	-486.202647	229.002844	1267.464618	-267.420591	355.682595	1243.638065	-439.714054	400.058843	1247.526801	-124.059560	395.061318	1191.822741	-402.356063	427.725195	1187.068401	-168.843712	274.698810	1303.785692	-232.196927	260.582666	1309.147424	-305.117626	347.133739	1195.396682	-99.751115	307.915020	1155.574227	-456.030140	412.008429	1040.463034	-94.758289	456.758695	964.163012	-100.023734	460.521247	878.963703	-98.884949	486.150178	974.122378	-120.397874	468.069202	730.258481	-111.220869	442.331075	718.926303	-224.323872	361.032680	656.696558	-86.297618	306.089547	586.951597	-103.572195	223.957574	558.916805	-112.501709	326.873558	564.305765	-127.087622	104.301453	455.906699	-122.092115	132.662332	445.474741	-205.995589	48.043634	492.345020	-168.498188	177.550422	214.021566	-158.552840	124.167368	264.472295	-107.413966	355.534310	1075.472669	-466.979600	425.771820	1024.573527	-471.703756	454.119344	1047.469890	-465.489220	462.127787	943.555045	-471.662321	541.779320	805.295512	-453.687129	569.901969	777.954654	-344.760242	493.180023	694.375268	-475.353482	465.286405	614.258939	-455.108673	400.072028	554.034998	-452.109864	490.377890	601.905676	-426.939818	313.571431	438.762359	-448.720417	313.260447	446.382076	-361.244140	228.944355	433.272726	-409.307681	519.405825	352.638497	-416.594178	441.685832	333.429593	-477.838054	-183.660733	929.447318	-287.166510	-17.488688	79.236245	-485.280063	-17.438792	79.528683	-84.592194	
753	3.7650	805.377077	1340.201755	-151.594369	819.325335	1283.622886	-455.690818	826.921459	1383.064883	-306.436009	757.803555	1243.081778	-296.402630	596.953105	1143.787052	14.598502	703.756232	910.935942	-104.922795	576.919035	1140.328454	-575.488998	693.376199	920.700618	-486.133988	228.781482	1264.240044	-268.455225	356.443815	1240.440420	-441.085953	399.566720	1247.702285	-124.848147	396.100251	1189.185821	-402.912082	428.184289	1187.350966	-169.296787	273.562533	1301.871837	-233.516525	259.536112	1305.935155	-306.920695	348.791583	1194.939526	-99.994870	307.865971	1150.733810	-455.819924	414.830277	1040.867320	-94.614781	460.034472	965.046442	-100.460639	465.105229	879.962623	-98.644536	489.697316	975.271836	-119.889515	474.782046	731.907560	-111.430502	447.676174	719.988900	-224.663955	366.430430	660.801279	-86.249210	308.475920	591.907123	-104.486100	226.756036	566.424358	-112.331453	329.886206	569.286755	-126.958912	104.900468	466.326609	-121.795366	132.848058	455.395849	-205.608010	48.771211	503.308836	-168.184021	176.126150	224.206487	-158.665543	123.170779	274.738255	-107.423033	354.874277	1070.317189	-467.364639	424.756152	1018.764534	-471.688206	453.145629	1041.367150	-466.315806	460.134155	937.324583	-471.594198	538.191594	799.178002	-453.963517	566.641847	771.447677	-344.739129	490.342859	687.070944	-475.520481	463.563639	606.473984	-455.314795	399.170647	545.403273	-452.358758	488.941710	594.569217	-427.591721	314.641722	427.894953	-448.887629	313.613856	436.258506	-362.218575	230.049681	422.129162	-408.952072	520.512087	341.754577	-416.227272	442.938189	322.659508	-477.545226	-183.667165	929.466147	-286.925272	-17.455327	79.302275	-485.254328	-17.410957	79.523176	-84.587611	
754	3.7700	804.331901	1341.214278	-150.443526	819.659042	1283.125085	-453.489922	826.558264	1383.189988	-305.995358	757.522009	1243.205997	-295.314846	597.497386	1143.764728	15.997612	703.784186	911.010821	-104.292248	577.559129	1140.964200	-575.443619	693.716611	920.864945	-486.055770	228.463431	1260.953781	-269.520153	357.308345	1237.205350	-442.481246	398.878682	1247.751186	-125.537290	397.156232	1186.466641	-403.620365	428.392281	1187.514073	-169.737159	272.394261	1299.612747	-234.594020	258.303203	1302.438996	-308.386674	350.063714	1194.131410	-100.221151	307.996758	1146.289684	-455.705174	417.095371	1041.191023	-94.274097	462.874903	965.805880	-99.912105	469.010768	880.834242	-98.263012	492.432205	976.305193	-119.810509	481.076892	733.485392	-111.438653	453.445951	721.370121	-224.208835	371.533477	664.864367	-86.268862	311.886678	597.427148	-104.535325	229.719018	573.964908	-111.982575	332.652962	574.316723	-126.904815	105.639055	476.847117	-121.772829	133.196919	465.476037	-205.563825	49.716796	514.176272	-168.143102	175.447085	234.374148	-158.832635	122.751623	285.320305	-107.523171	354.414449	1065.535169	-467.746226	423.628124	1013.042780	-472.036438	452.284528	1035.375123	-467.043549	458.068751	931.322699	-471.571072	534.734668	792.711135	-454.347509	564.213404	764.969467	-344.576764	487.421012	679.859773	-475.745229	461.651754	599.058571	-455.608518	398.236195	536.944911	-452.682528	487.576652	587.015868	-428.277542	315.487720	417.281115	-449.073099	314.463942	425.704264	-361.599348	230.688288	412.310217	-409.556861	521.228131	330.361595	-415.684410	443.594620	311.576187	-477.288776	-183.654835	929.467617	-286.794114	-17.435283	79.331766	-485.242824	-17.397458	79.502725	-84.593568	
